<svg width="30" height="32" viewBox="0 0 30 32" fill="none" xmlns="http://www.w3.org/2000/svg">
<path d="M21.4453 31.2765H19.4453V26.2335C19.4445 25.4495 19.1327 24.6979 18.5784 24.1435C18.024 23.5891 17.2723 23.2773 16.4883 23.2765H8.40231C7.6183 23.2773 6.86664 23.5891 6.31227 24.1435C5.7579 24.6979 5.4461 25.4495 5.44531 26.2335V31.2765H3.44531V26.2335C3.44689 24.9193 3.96966 23.6594 4.89893 22.7301C5.8282 21.8009 7.08811 21.2781 8.40231 21.2765H16.4883C17.8025 21.2781 19.0624 21.8009 19.9917 22.7301C20.921 23.6594 21.4437 24.9193 21.4453 26.2335V31.2765Z" fill="#253D4E"/>
<path d="M12.4453 19.2765C11.2587 19.2765 10.0986 18.9246 9.11189 18.2653C8.12519 17.606 7.35616 16.669 6.90203 15.5726C6.44791 14.4762 6.32909 13.2698 6.5606 12.106C6.79211 10.9421 7.36355 9.87296 8.20267 9.03385C9.04178 8.19473 10.1109 7.62329 11.2748 7.39178C12.4387 7.16027 13.6451 7.27909 14.7414 7.73322C15.8378 8.18734 16.7749 8.95637 17.4342 9.94307C18.0934 10.9298 18.4453 12.0898 18.4453 13.2765C18.4437 14.8673 17.8111 16.3925 16.6862 17.5174C15.5614 18.6423 14.0362 19.2749 12.4453 19.2765ZM12.4453 9.27649C11.6542 9.27649 10.8809 9.51108 10.2231 9.95061C9.56523 10.3901 9.05254 11.0149 8.74979 11.7458C8.44704 12.4767 8.36783 13.2809 8.52217 14.0569C8.67651 14.8328 9.05747 15.5455 9.61688 16.1049C10.1763 16.6643 10.8891 17.0453 11.665 17.1997C12.4409 17.354 13.2452 17.2748 13.9761 16.972C14.707 16.6693 15.3317 16.1566 15.7712 15.4988C16.2107 14.841 16.4453 14.0676 16.4453 13.2765C16.4453 12.2156 16.0239 11.1982 15.2738 10.4481C14.5236 9.69792 13.5062 9.27649 12.4453 9.27649Z" fill="#253D4E"/>
</svg>
