<svg width="100" height="100" viewBox="0 0 100 100" fill="none" xmlns="http://www.w3.org/2000/svg">
<g clip-path="url(#clip0_6511_2295)">
<g clip-path="url(#clip1_6511_2295)">
<g clip-path="url(#clip2_6511_2295)">
<mask id="mask0_6511_2295" style="mask-type:luminance" maskUnits="userSpaceOnUse" x="1" y="0" width="99" height="99">
<path d="M99.7307 0H1.08203V98.6487H99.7307V0Z" fill="white"/>
</mask>
<g mask="url(#mask0_6511_2295)">
<path d="M20.7148 23.5715V50.0001C25.7148 48.3334 38.0006 48.0001 47.1434 60.0001C49.2863 64.524 52.7148 75.0001 49.2863 80.7144L59.2863 86.4287V43.5715L20.7148 23.5715Z" fill="#FDC040"/>
<path d="M98.7311 21.3359L60.3108 0.238863C59.7336 -0.0779934 59.0337 -0.0779934 58.4564 0.238863L43.9751 8.1904C43.6696 8.27093 43.3843 8.42447 43.148 8.64499L20.0369 21.3359C19.4206 21.6737 19.0374 22.321 19.0374 23.0247V48.5404C15.1389 49.7597 11.5661 51.9099 8.59544 54.8813C0.852388 62.6236 -1.12176 74.4323 3.68303 84.2654C4.14965 85.2213 5.30344 85.618 6.25928 85.1506C7.21587 84.6831 7.61175 83.5294 7.14513 82.5736C3.06287 74.2186 4.74047 64.1853 11.32 57.6059C15.4346 53.4911 20.9047 51.225 26.7233 51.225C32.5419 51.225 38.012 53.4911 42.1266 57.6059C46.2404 61.7197 48.5067 67.1899 48.5067 73.0084C48.5067 78.827 46.2404 84.2971 42.1259 88.4117C35.5464 94.9911 25.513 96.6689 17.1581 92.5866C16.2023 92.1191 15.0484 92.5159 14.5819 93.4716C14.1145 94.4283 14.5104 95.582 15.467 96.0486C19.0487 97.7993 22.8917 98.6497 26.7067 98.6497C33.3623 98.649 39.929 96.0584 44.8511 91.1363C47.1083 88.8791 48.892 86.275 50.1541 83.4443L58.4564 88.003C58.7454 88.1619 59.0646 88.2409 59.3837 88.2409C59.7027 88.2409 60.0227 88.1619 60.3108 88.003L98.7311 66.9069C99.3476 66.5681 99.7306 65.9209 99.7306 65.2179V51.8279C99.7306 50.7637 98.8681 49.9011 97.8038 49.9011C96.7397 49.9011 95.8771 50.7637 95.8771 51.8279V64.0777L61.3164 83.0553V45.2581L72.7226 38.9947V48.9234C72.7226 49.6054 73.0823 50.236 73.6686 50.5823C73.9711 50.7607 74.3098 50.8501 74.6493 50.8501C74.9684 50.8501 75.2883 50.7711 75.578 50.6116L83.811 46.08C84.4267 45.7413 84.8083 45.0949 84.8083 44.3927V32.3581L95.8771 26.2806V36.4147C95.8771 37.479 96.7397 38.3416 97.8038 38.3416C98.8681 38.3416 99.7306 37.479 99.7306 36.4147V23.0247C99.7306 22.3217 99.3476 21.6737 98.7311 21.3359ZM59.3837 4.12544L93.8007 23.0247L82.944 28.9863L48.527 10.087L59.3837 4.12544ZM59.3837 41.9233L24.9667 23.0247L36.2214 16.8441L70.6393 35.7427L59.3837 41.9233ZM74.6417 33.545L40.2247 14.6464L44.5237 12.2855L78.9414 31.184L74.6417 33.545ZM44.8511 54.8813C40.0087 50.0389 33.5707 47.3723 26.7233 47.3723C25.428 47.3723 24.1486 47.4679 22.8909 47.6553V26.2806L57.4637 45.265V83.062L51.463 79.767C52.0538 77.5919 52.3594 75.3234 52.3594 73.0084C52.3594 66.161 49.6929 59.723 44.8511 54.8813ZM80.9556 43.2539L76.576 45.6646V36.8791L80.9556 34.4744V43.2539Z" fill="#3BB77E"/>
<path d="M97.8017 42.1841C97.2953 42.1841 96.7977 42.3904 96.4396 42.7487C96.0813 43.1068 95.875 43.6037 95.875 44.1108C95.875 44.6174 96.0813 45.1141 96.4396 45.4724C96.7977 45.8314 97.2953 46.0368 97.8017 46.0368C98.3083 46.0368 98.8057 45.8314 99.164 45.4724C99.5223 45.1141 99.7286 44.6174 99.7286 44.1108C99.7286 43.6037 99.5223 43.1068 99.164 42.7487C98.8057 42.3904 98.3083 42.1841 97.8017 42.1841Z" fill="#3BB77E"/>
<path d="M20.2457 74.9341C20.7387 74.9341 21.2324 74.7459 21.608 74.3703C22.3605 73.6176 22.3605 72.3976 21.608 71.6451L20.2735 70.3099H31.6608C34.423 70.3099 36.6702 72.5572 36.6702 75.3193C36.6702 78.0815 34.423 80.3289 31.6608 80.3289H24.9134C23.8492 80.3289 22.9867 81.1913 22.9867 82.2556C22.9867 83.319 23.8492 84.1816 24.9134 84.1816H31.6608C36.5477 84.1816 40.5238 80.2062 40.5238 75.3193C40.5238 70.4325 36.5477 66.4572 31.6608 66.4572H20.2735L21.608 65.1219C22.3605 64.3693 22.3605 63.1493 21.608 62.3968C20.856 61.6448 19.636 61.6448 18.8834 62.3968L14.2592 67.0209C13.5073 67.7735 13.5073 68.9935 14.2592 69.7462L18.8834 74.3695C19.2597 74.7459 19.7527 74.9341 20.2457 74.9341Z" fill="#3BB77E"/>
<path d="M9.95918 91.7028C9.41127 91.7028 8.86711 91.4695 8.48704 91.0171L8.48328 91.0126C7.79838 90.1982 7.90375 88.9835 8.7181 88.2986C9.53244 87.6129 10.7479 87.7184 11.4328 88.5326C12.117 89.3478 12.0139 90.5648 11.1995 91.2496C10.8375 91.5538 10.3972 91.7028 9.95918 91.7028Z" fill="#3BB77E"/>
</g>
</g>
</g>
</g>
<defs>
<clipPath id="clip0_6511_2295">
<rect width="100" height="100" fill="white"/>
</clipPath>
<clipPath id="clip1_6511_2295">
<rect width="100" height="100" fill="white"/>
</clipPath>
<clipPath id="clip2_6511_2295">
<rect width="100" height="100" fill="white"/>
</clipPath>
</defs>
</svg>
