<svg width="100" height="100" viewBox="0 0 100 100" fill="none" xmlns="http://www.w3.org/2000/svg">
<g clip-path="url(#clip0_6511_2258)">
<g clip-path="url(#clip1_6511_2258)">
<mask id="mask0_6511_2258" style="mask-type:luminance" maskUnits="userSpaceOnUse" x="0" y="0" width="100" height="99">
<path d="M99.3808 0H0.539062V98.8417H99.3808V0Z" fill="white"/>
</mask>
<g mask="url(#mask0_6511_2258)">
<path d="M67.144 95.7143C81.3456 95.7143 92.8583 84.2017 92.8583 70.0001C92.8583 55.7984 81.3456 44.2858 67.144 44.2858C52.9424 44.2858 41.4297 55.7984 41.4297 70.0001C41.4297 84.2017 52.9424 95.7143 67.144 95.7143Z" fill="#FDC040"/>
<path d="M72.3444 42.7877V24.0823C72.3444 23.5469 72.0971 23.0521 71.7472 22.6607L50.7757 0.638724C50.3842 0.226984 49.8277 0 49.2719 0H16.0221C9.88364 0 4.98047 5.00573 4.98047 11.1449V74.0181C4.98047 80.1573 9.88364 85.0808 16.0221 85.0808H42.2678C47.2321 93.321 56.2557 98.8417 66.5348 98.8417C82.1501 98.8417 94.9019 86.1517 94.9019 70.5161C94.9231 56.8579 85.1167 45.4453 72.3444 42.7877ZM51.3321 7.23109L65.4022 22.0424H56.2761C53.5568 22.0424 51.3321 19.7974 51.3321 17.0781V7.23109ZM16.0221 80.9604C12.1701 80.9604 9.10088 77.8701 9.10088 74.0181V11.1449C9.10088 7.27181 12.1701 4.12041 16.0221 4.12041H47.2117V17.0781C47.2117 22.0839 51.2702 26.1629 56.2761 26.1629H68.2241V42.2516C67.6064 42.2313 67.1117 42.1694 66.5764 42.1694C59.3867 42.1694 52.7739 44.9301 47.7887 49.2564H21.6258C20.4924 49.2564 19.5655 50.1833 19.5655 51.3159C19.5655 52.4493 20.4924 53.3761 21.6258 53.3761H43.9569C42.4941 55.4363 41.2784 57.4966 40.3312 59.7626H21.6258C20.4924 59.7626 19.5655 60.6894 19.5655 61.8229C19.5655 62.9554 20.4924 63.883 21.6258 63.883H38.9919C38.4769 65.9433 38.2092 68.2297 38.2092 70.5161C38.2092 74.224 38.9302 77.8913 40.2279 80.9816H16.0221V80.9604ZM66.5559 94.7424C53.2068 94.7424 42.3501 83.8856 42.3501 70.5364C42.3501 57.1874 53.1857 46.3306 66.5559 46.3306C79.9254 46.3306 90.7611 57.1874 90.7611 70.5364C90.7611 83.8856 79.9051 94.7424 66.5559 94.7424Z" fill="#3BB77E"/>
<path d="M21.6265 43.0555H42.4948C43.6283 43.0555 44.5551 42.1279 44.5551 40.9953C44.5551 39.8619 43.6283 38.9351 42.4948 38.9351H21.6265C20.4931 38.9351 19.5664 39.8619 19.5664 40.9953C19.5664 42.1279 20.4931 43.0555 21.6265 43.0555Z" fill="#3BB77E"/>
<path d="M65.8762 57.826C66.0414 57.8667 66.2058 57.8879 66.3709 57.8879C66.5768 57.8879 66.7624 57.8667 66.9478 57.8049C69.6671 58.0319 71.7892 60.298 71.7892 63.0587C71.7892 64.1915 72.716 65.1182 73.8487 65.1182C74.9821 65.1182 75.9088 64.1915 75.9088 63.0587C75.9088 58.5266 72.6957 54.7357 68.4311 53.8497V52.5315C68.4311 51.398 67.5037 50.4713 66.3709 50.4713C65.2375 50.4713 64.3107 51.398 64.3107 52.5315V53.9326C60.1904 54.9213 57.1211 58.6503 57.1211 63.0587C57.1211 68.25 61.3441 72.4526 66.5149 72.4526C69.4198 72.4526 71.7892 74.8213 71.7892 77.726C71.7892 80.6309 69.4401 83.0206 66.5149 83.0206C63.6102 83.0206 61.2415 80.6512 61.2415 77.7465C61.2415 76.6137 60.314 75.6862 59.1814 75.6862C58.048 75.6862 57.1211 76.6137 57.1211 77.7465C57.1211 82.176 60.1904 85.8839 64.3107 86.8726V88.9946C64.3107 90.128 65.2375 91.0549 66.3709 91.0549C67.5037 91.0549 68.4311 90.128 68.4311 88.9946V86.9345C72.6957 86.0483 75.9088 82.2582 75.9088 77.726C75.9088 72.5349 71.6858 68.3322 66.5149 68.3322C63.6102 68.3322 61.2415 65.9629 61.2415 63.0587C61.2415 60.3802 63.2602 58.1353 65.8762 57.826Z" fill="#3BB77E"/>
</g>
</g>
</g>
<defs>
<clipPath id="clip0_6511_2258">
<rect width="100" height="100" fill="white"/>
</clipPath>
<clipPath id="clip1_6511_2258">
<rect width="100" height="100" fill="white"/>
</clipPath>
</defs>
</svg>
