<svg width="100" height="100" viewBox="0 0 100 100" fill="none" xmlns="http://www.w3.org/2000/svg">
<g clip-path="url(#clip0_6511_2239)">
<g clip-path="url(#clip1_6511_2239)">
<mask id="mask0_6511_2239" style="mask-type:luminance" maskUnits="userSpaceOnUse" x="0" y="0" width="100" height="99">
<path d="M99.1112 0H0.269531V98.8417H99.1112V0Z" fill="white"/>
</mask>
<g mask="url(#mask0_6511_2239)">
<path d="M63.5703 47.1429L68.5703 39.2858L75.7132 35.7143C76.6656 35.4762 78.7132 35.1429 79.2846 35.7143C79.856 36.2858 88.0942 47.381 92.1417 52.8572L95.7132 59.2858C94.9989 60.7143 93.4275 63.7143 92.856 64.2858C92.2846 64.8572 86.9036 67.381 84.2846 68.5715C82.856 68.8096 79.856 69.2858 79.2846 69.2858C78.7132 69.2858 71.9036 60.2382 68.5703 55.7143L64.8203 49.2858L63.5703 47.1429Z" fill="#FDC040"/>
<path d="M79.2852 69.2858C78.7137 69.2858 71.9042 60.2382 68.5709 55.7143L64.8209 49.2858H62.1423H54.9994C54.2852 49.2858 50.7137 50.7143 49.2852 51.4286L44.9994 53.5715C43.5709 54.2858 42.1423 55.7143 41.428 56.4286C40.7137 57.1429 39.2852 59.2858 39.2852 60.0001C39.2852 60.7143 39.2852 62.1429 39.9994 62.8572C40.7137 63.5715 42.1423 64.2858 42.8566 64.2858H47.1423C48.2852 64.2858 51.428 62.8572 52.8566 62.1429C53.3327 62.3811 54.428 63.0001 54.9994 63.5715C55.5709 64.1429 60.4756 67.6191 62.8566 69.2858L68.5709 75.0001C69.5233 75.4762 71.5709 76.2858 72.1423 75.7143C72.7137 75.1429 74.7613 73.5715 75.7137 72.8572L77.8566 71.4286L79.2852 69.2858Z" fill="#FDC040"/>
<path d="M22.1406 77.1429C22.1406 78.2857 24.0453 80.4761 24.9978 81.4286L29.9978 85.7143L32.8549 87.8571L35.7121 90.7143C36.6645 91.1904 38.5692 92.2857 38.5692 92.8571C38.5692 93.4286 41.4263 94.0476 42.8549 94.2857C43.5692 93.8096 45.1406 92.7143 45.7121 92.1429C46.4263 91.4286 46.4263 91.4286 46.4263 90C46.4263 88.5714 46.4263 87.1429 45.7121 85.7143C44.9978 84.2857 44.9978 81.4286 44.2835 80.7143C43.5692 80 40.7121 78.5714 40.7121 77.8571C40.7121 77.1429 38.5692 74.2857 37.8549 73.5714C37.1406 72.8571 35.7121 70 34.9978 69.2857C34.2835 68.5714 32.1406 67.1429 30.7121 67.8571C29.2835 68.5714 24.9978 72.1429 24.2835 72.8571C23.7121 73.4286 22.6168 75.9524 22.1406 77.1429Z" fill="#FDC040"/>
<path d="M35.7137 7.14282C39.9994 13.0952 52.2852 24.7143 67.1423 23.5714L64.2852 32.1428L59.9994 35.7143L46.428 40L35.7137 36.4285L29.2852 25L29.9994 15.7143L33.5709 9.28568L35.7137 7.14282Z" fill="#FDC040"/>
<path d="M48.0896 25.6783C47.3355 25.6783 46.4108 25.568 45.7776 24.8624C45.5575 24.6146 45.3646 24.383 45.1776 24.19C43.6693 22.6027 41.0712 24.8074 42.6455 26.8684L43.0253 27.3588C43.2729 27.6678 43.7189 28.0258 44.3573 28.4338C44.9795 28.8303 45.6729 29.117 46.4436 29.2878V32.0107C46.4436 32.9476 47.2085 33.7191 48.1446 33.7191C49.0859 33.7191 49.8839 32.9476 49.8839 32.0107V29.2714C51.1171 28.9851 52.1739 28.3841 53.0381 27.475C53.9075 26.5653 54.3425 25.3586 54.3425 23.8538C54.3425 22.8288 54.1446 21.9747 53.7481 21.2856C53.3518 20.6021 52.8673 20.1228 52.2893 19.8526C51.7059 19.5824 51.0729 19.3454 50.3738 19.1417C49.6803 18.9378 49.0473 18.7944 48.4638 18.7064C47.8859 18.6234 47.4015 18.447 47.0051 18.1883C46.6086 17.9234 46.4106 17.5818 46.4106 17.1574C46.4106 15.1294 49.3831 15.3773 50.6929 16.4796C52.6251 18.1054 54.7882 15.1294 52.5479 13.4485L52.2892 13.2168C52.1129 13.0794 51.8048 12.9083 51.3589 12.6933C50.9185 12.4786 50.4229 12.3185 49.8838 12.2027V10.555V9.83863C49.8838 8.90156 49.1185 8.13013 48.1773 8.13013C47.2415 8.13013 46.4711 8.90137 46.4711 9.83863V12.1753C45.2158 12.4234 44.1755 13.0463 43.4546 13.9664C42.7281 14.9036 42.3592 15.9398 42.3592 17.0967C42.3592 18.2598 42.6292 19.2133 43.1683 19.9684C43.7078 20.723 44.3629 21.2523 45.1391 21.561C45.9096 21.8697 46.6801 22.1178 47.4508 22.2994C48.2268 22.4871 48.8821 22.6907 49.4212 22.9278C49.9608 23.1593 50.2305 23.4846 50.2305 23.9088C50.2306 25.0883 49.5152 25.6783 48.0896 25.6783Z" fill="#3BB77E"/>
<path d="M97.0689 55.7621L81.2063 35.444C80.1379 34.0718 78.5179 33.2847 76.7622 33.2847C75.5229 33.2847 74.3498 33.6781 73.3652 34.4251L62.9841 42.3385C61.7958 43.2441 61.0366 44.5584 60.8463 46.0391C60.8179 46.2598 60.8045 46.4798 60.8022 46.6988C56.8446 46.399 52.7569 46.7004 48.7872 49.2807L48.6092 49.3962L38.5671 47.8605C38.5876 47.5128 38.5765 47.161 38.5306 46.8078C38.3392 45.3307 37.5813 44.0194 36.3953 43.1152L26.0116 35.209C23.5788 33.3485 20.0612 33.8005 18.1695 36.2191L14.3881 41.0637C13.7263 41.9111 13.8772 43.1345 14.7248 43.796C15.5723 44.4577 16.7958 44.3067 17.4573 43.4592L21.2376 38.6164C21.8099 37.8847 22.9129 37.7407 23.6496 38.3042L34.0358 46.2122C34.3875 46.4804 34.6125 46.8697 34.6693 47.3087C34.7262 47.7482 34.6075 48.1834 34.3365 48.5314L18.4709 68.8528C17.9025 69.5828 16.7981 69.7254 16.0625 69.1677L5.68089 61.2534C5.32721 60.984 5.10116 60.5932 5.04459 60.1537C4.98841 59.7161 5.10714 59.284 5.3803 58.935L8.0776 55.4795C8.73919 54.632 8.58841 53.4087 7.74073 52.7472C6.89324 52.0852 5.66989 52.2364 5.0081 53.084L2.31236 56.5374C1.39401 57.7114 0.992853 59.1718 1.18281 60.6498C1.37297 62.1302 2.13243 63.4445 3.32046 64.35L13.7054 72.267C14.7161 73.0335 15.9105 73.4044 17.0971 73.4042C17.7833 73.4042 18.4662 73.2781 19.1101 73.035L20.4541 74.8757C19.7235 76.2082 19.6096 77.8091 20.1968 79.354C21.0359 81.563 23.0161 83.0605 25.1583 83.1318C25.2248 83.4465 25.3168 83.761 25.4425 84.0724C26.3061 86.212 28.2778 87.6682 30.3965 87.7641C30.4062 87.8197 30.4135 87.8754 30.4249 87.9311C30.8281 89.8901 32.3309 91.5631 34.2535 92.1934C34.7432 92.354 35.2371 92.4364 35.7261 92.451C35.9133 93.2397 36.3048 94.0015 36.9066 94.6702C37.8446 95.713 39.2141 96.3801 40.7163 96.3798C41.8073 96.3798 42.9685 96.0258 44.0846 95.21L46.2891 97.2707C47.4119 98.3185 48.8255 98.8417 50.2255 98.8417C51.6456 98.8415 53.0513 98.3032 54.1249 97.2287C54.7651 96.5879 55.2611 95.8257 55.5819 95.0231C56.1289 95.1894 56.6633 95.2681 57.1761 95.2681C58.6199 95.268 59.8941 94.6582 60.8069 93.718C61.5539 92.9487 62.0886 91.9245 62.3251 90.8328C62.4041 90.8368 62.4831 90.8401 62.5623 90.8408C62.5819 90.8411 62.6009 90.8411 62.6205 90.8411C64.1561 90.8411 65.6293 90.2462 66.6699 89.2042C67.3989 88.4745 67.9003 87.5762 68.1398 86.5955C68.5112 86.668 68.8842 86.7058 69.2563 86.7058C69.7249 86.7058 70.1923 86.6477 70.6528 86.5297C72.5301 86.0487 73.9798 84.5814 74.4359 82.7005C74.8569 80.965 74.4232 79.1367 73.2423 77.4748C76.2998 75.015 77.5365 73.8032 78.9332 71.5375C79.8872 72.2394 81.0486 72.626 82.2761 72.626C83.5189 72.626 84.6943 72.2297 85.6716 71.4824L96.0595 63.5731C97.2445 62.6698 98.0025 61.3588 98.1941 59.8814C98.3855 58.4027 97.9866 56.9402 97.0689 55.7621ZM26.1768 78.839C25.8786 79.1084 25.5893 79.2451 25.3171 79.2451C24.7579 79.2451 24.1078 78.6858 23.8363 77.9714C23.5899 77.3225 23.7048 76.7804 24.1789 76.3594L24.1852 76.354L24.1911 76.3488L30.7498 70.5191C31.2985 70.0324 31.8506 69.7751 32.3469 69.7751C33.0732 69.7751 33.6162 70.3265 33.8133 70.8394C34.0242 71.387 33.8973 71.8757 33.4386 72.2905L32.2953 73.3215L32.2923 73.3242C32.2866 73.3291 32.2813 73.3341 32.2756 73.3391C32.2348 73.3762 32.1925 73.4144 32.1508 73.4521L26.1768 78.839ZM31.4782 83.4921C31.1826 83.7532 30.9009 83.8798 30.6176 83.8798C30.0266 83.8798 29.3396 83.3245 29.0533 82.615C28.7378 81.8335 29.1122 81.4727 29.2305 81.3584C29.3066 81.2855 29.3979 81.198 29.4931 81.0961L29.4948 81.0945L29.5149 81.0768C29.8893 80.7422 33.1872 77.7625 34.7629 76.3388L34.8803 76.233C35.4143 75.7642 35.9552 75.5165 36.4453 75.5165C37.2183 75.5165 37.7938 76.1081 38.0013 76.6575C38.2078 77.2038 38.0839 77.682 37.6349 78.0774L37.2311 78.4325C37.2281 78.4352 37.2251 78.4374 37.2222 78.4401L37.2193 78.443L31.4782 83.4921ZM37.2809 87.6941C37.2541 87.7182 37.2288 87.7435 37.2028 87.7681L36.7459 88.1802C36.3399 88.5471 35.9333 88.6471 35.4662 88.4938C34.8756 88.3001 34.3599 87.7335 34.2391 87.1467C34.1339 86.6364 34.3382 86.1635 34.8568 85.7064L35.5063 85.1388C35.5228 85.1245 35.5369 85.1088 35.5528 85.0941L39.8079 81.352C40.8276 80.4505 41.8375 80.3602 42.5096 81.1117C42.6042 81.2175 43.4058 82.1704 42.4272 83.0544L39.8139 85.4125C39.7859 85.4372 39.7575 85.4594 39.7298 85.4847C39.7199 85.4938 39.7118 85.5042 39.7021 85.5131L37.3108 87.6708C37.3012 87.6791 37.2903 87.6855 37.2809 87.6941ZM39.8013 92.0659C39.5962 91.8382 39.2003 91.2477 39.8496 90.6241L42.4566 88.2718C42.6539 88.1031 42.8441 87.9692 43.0221 87.8774C43.0301 87.8731 43.0385 87.8688 43.0465 87.8647C44.0973 87.3034 44.6668 87.9577 44.8166 88.1714C45.0091 88.4462 45.2438 88.9862 44.6536 89.5164L42.8676 91.1218C42.8608 91.1278 42.8542 91.134 42.8475 91.14L42.0732 91.8358C40.8008 92.978 40.0125 92.3011 39.8013 92.0659ZM70.6519 81.7828C70.5322 82.276 70.1803 82.6314 69.6863 82.7581C68.8673 82.9677 67.8308 82.513 66.8816 81.5391C66.8105 81.4604 66.7375 81.3828 66.6612 81.3077L59.3126 74.0435C58.5476 73.288 57.3151 73.295 56.5593 74.0597C55.8035 74.8242 55.8105 76.057 56.5751 76.8127L63.9119 84.065C63.9242 84.078 63.9366 84.0907 63.9486 84.1037C64.2418 84.4051 64.4048 84.8078 64.4066 85.2438C64.4083 85.7042 64.2338 86.1335 63.9149 86.4528C63.6003 86.768 63.1299 86.9477 62.6215 86.9477C62.6143 86.9477 62.6073 86.9477 62.6002 86.9474C62.1501 86.9432 61.7392 86.7924 61.4501 86.5292C61.3282 86.3718 61.1956 86.2191 61.0498 86.0727L55.6775 80.6938C54.9176 79.9334 53.6849 79.9325 52.9242 80.6921C52.1635 81.4518 52.1628 82.6844 52.9223 83.4451L58.0172 88.5462C58.0786 88.6361 58.1468 88.7227 58.2251 88.8037L58.4419 89.0272C58.7212 89.5591 58.5481 90.4551 58.0133 91.0061C57.1882 91.8558 56.0269 91.1067 55.1996 90.3297L52.8989 88.1638C52.1161 87.4268 50.8838 87.4641 50.1469 88.2468C49.4099 89.0298 49.4471 90.262 50.2299 90.999L51.9875 92.6532C51.9918 92.6572 51.9952 92.6617 51.9995 92.6655C52.0396 92.7031 52.1001 92.7598 52.1031 92.9561C52.1106 93.4124 51.8093 94.038 51.3705 94.4772C50.7299 95.1182 49.6649 95.0954 48.9469 94.4252L47.0203 92.6245L47.2558 92.4127C49.1662 90.6972 49.4745 88.035 48.0056 85.938C47.5276 85.2555 46.9289 84.7254 46.2573 84.3575C47.2041 82.4905 46.9393 80.2237 45.4113 78.5158C44.5495 77.5521 43.3319 76.894 41.9728 76.7482C41.9339 76.2598 41.8271 75.7675 41.6438 75.2822C40.9825 73.5312 39.5123 72.2424 37.7822 71.7961C37.8542 71.0204 37.7471 70.2197 37.4475 69.4407C36.6281 67.312 34.5786 65.8814 32.3471 65.8814C30.8838 65.8814 29.4382 66.4778 28.1649 67.6072L23.1943 72.0254L22.1018 70.5291L36.9215 51.5477L43.6971 52.584L42.6721 53.249C37.1816 56.8111 36.7798 60.9538 38.2346 63.6432C39.3989 65.796 41.7226 67.0264 44.1892 67.0264C45.2046 67.0262 46.2448 66.8177 47.2376 66.379C47.2639 66.3671 47.2899 66.3551 47.3155 66.3424L52.4483 63.7974L55.4113 66.4954C55.4143 66.498 55.4173 66.5 55.4201 66.5025C55.4229 66.5051 55.4253 66.5078 55.4282 66.5105L69.1236 78.6905C70.2971 79.734 70.8685 80.89 70.6519 81.7828ZM70.4882 74.6938L58.0242 63.6088L54.0859 60.0231C53.4929 59.4828 52.6289 59.3617 51.9105 59.7182L45.6278 62.8335C43.9209 63.5677 42.2419 62.8691 41.6589 61.7912C40.8578 60.3102 42.0578 58.2885 44.7909 56.5155L50.9078 52.5462C54.2243 50.3902 57.7035 50.224 62.4628 50.7762L76.2436 68.434C74.7893 71.0455 74.0171 71.8745 70.4882 74.6938ZM94.3326 59.3808C94.2759 59.8192 94.0508 60.2084 93.6998 60.476L83.3095 68.387C82.9363 68.6725 82.5418 68.7324 82.2765 68.7324C81.7303 68.7322 81.2289 68.4918 80.9023 68.0741L65.0423 47.7525C64.7705 47.4048 64.6518 46.9727 64.7081 46.5352C64.7646 46.0955 64.9905 45.7045 65.3443 45.435L75.7223 37.5238C76.0989 37.2384 76.4953 37.1784 76.7619 37.1784C77.3086 37.1784 77.8088 37.418 78.1358 37.8378L93.9983 58.1561C94.2709 58.5064 94.3898 58.9411 94.3326 59.3808Z" fill="#3BB77E"/>
<path d="M38.2663 39.5489C41.3229 41.1981 44.7756 42.0699 48.2513 42.0699C59.8385 42.0699 69.2656 32.6323 69.2656 21.032C69.2656 12.9359 64.539 5.46989 57.2258 2.01177C54.4085 0.676834 51.389 0 48.2513 0C36.6668 0 27.2422 9.43494 27.2422 21.032C27.2422 28.7669 31.4652 35.8614 38.2663 39.5489ZM48.2513 3.89344C50.8078 3.89344 53.2663 4.44421 55.5599 5.5307C61.5203 8.34904 65.3719 14.4339 65.3719 21.032C65.3719 30.4856 57.6916 38.1764 48.2515 38.1764C45.419 38.1764 42.6058 37.466 40.1189 36.1243C34.5779 33.1199 31.1358 27.3369 31.1358 21.032C31.1358 11.5819 38.8136 3.89344 48.2513 3.89344Z" fill="#3BB77E"/>
<path d="M10.0177 49.7904C10.3762 50.0766 10.805 50.2156 11.2308 50.2156C11.8026 50.2156 12.3692 49.9647 12.7536 49.4829L12.7756 49.4553C13.4463 48.615 13.3086 47.39 12.4683 46.7194C11.6279 46.0492 10.4028 46.1861 9.73237 47.0269L9.71036 47.0546C9.0397 47.8949 9.17734 49.1197 10.0177 49.7904Z" fill="#3BB77E"/>
</g>
</g>
</g>
<defs>
<clipPath id="clip0_6511_2239">
<rect width="100" height="100" fill="white"/>
</clipPath>
<clipPath id="clip1_6511_2239">
<rect width="100" height="100" fill="white"/>
</clipPath>
</defs>
</svg>
