<svg width="100" height="100" viewBox="0 0 100 100" fill="none" xmlns="http://www.w3.org/2000/svg">
<g clip-path="url(#clip0_6511_2274)">
<mask id="mask0_6511_2274" style="mask-type:luminance" maskUnits="userSpaceOnUse" x="0" y="0" width="100" height="99">
<path d="M99.6542 0H0.8125V98.8417H99.6542V0Z" fill="white"/>
</mask>
<g mask="url(#mask0_6511_2274)">
<path d="M73.3623 93.2435C72.3613 93.2435 71.5383 94.0051 71.4412 94.9805H56.9136L54.6217 81.1795L57.1692 78.6322C57.5312 78.2702 57.7346 77.7791 57.7346 77.2672C57.7346 76.7552 57.5312 76.2642 57.1692 75.9021L54.9152 73.6481H58.7667C62.9937 73.6481 66.9272 75.7461 69.288 79.2603C69.8826 80.1453 71.0822 80.3806 71.9669 79.7863C72.8519 79.1916 73.0873 77.9922 72.4927 77.1071C69.4376 72.5596 64.3624 69.8318 58.8966 69.7889C60.7667 67.7179 61.9074 64.9762 61.9074 61.9728V59.1413C61.9074 52.7035 56.67 47.4661 50.2322 47.4661C43.7943 47.4661 38.5569 52.7035 38.5569 59.1413V61.9728C38.5569 64.9771 39.698 67.7191 41.5686 69.7903C32.5157 69.8602 25.1719 77.2438 25.1719 86.3129V96.9109C25.1719 97.9771 26.0362 98.8415 27.1024 98.8415H73.3619C74.4282 98.8415 75.2924 97.9771 75.2924 96.9109V95.1739C75.2927 94.1079 74.4284 93.2435 73.3623 93.2435ZM50.2547 80.0865L47.4353 77.2672L50.2547 74.4479L53.0743 77.2672L50.2547 80.0865ZM49.2554 84.4662C49.5619 84.6519 49.9079 84.7471 50.2546 84.7471C50.6013 84.7471 50.9474 84.6521 51.2536 84.4662L52.9997 94.9805H47.5093L49.2554 84.4662ZM42.4183 59.1413C42.4183 54.8326 45.9236 51.3271 50.2326 51.3271C54.5414 51.3271 58.0469 54.8323 58.0469 59.1413V61.9728C58.0469 66.2815 54.5414 69.7871 50.2326 69.7871C45.9236 69.7871 42.4183 66.2816 42.4183 61.9728V59.1413ZM29.0333 86.3129C29.0333 79.3294 34.7147 73.6481 41.6982 73.6481H45.5939L43.3399 75.9021C42.9779 76.2642 42.7744 76.7552 42.7744 77.2672C42.7744 77.7791 42.9779 78.2702 43.3399 78.6322L45.8873 81.1795L43.5954 94.9805H29.0332L29.0333 86.3129Z" fill="#3BB77E"/>
<path d="M40 2.14282C40.5714 2.14282 53.5714 2.61901 60 2.85711V23.5714L40 22.8571V2.14282Z" fill="#FDC040"/>
<path d="M85.7148 2.85693L75.7148 21.4284H97.1434L87.1434 3.57122L85.7148 2.85693Z" fill="#FDC040"/>
<path d="M40 2.14282C40.5714 2.14282 53.5714 2.61901 60 2.85711V23.5714L40 22.8571V2.14282Z" stroke="black" stroke-width="1.42857" stroke-linecap="round" stroke-linejoin="round"/>
<path d="M85.7148 2.85693L75.7148 21.4284H97.1434L87.1434 3.57122L85.7148 2.85693Z" stroke="black" stroke-width="1.42857" stroke-linecap="round" stroke-linejoin="round"/>
<path d="M25.5007 12.3455C25.5007 5.53891 19.963 0.00146484 13.1567 0.00146484C6.35033 0.00146484 0.8125 5.53911 0.8125 12.3455C0.8125 19.1518 6.35015 24.6896 13.1565 24.6896C19.9629 24.6896 25.5007 19.152 25.5007 12.3455ZM4.6735 12.3455C4.6735 7.66807 8.4789 3.86247 13.1565 3.86247C17.8342 3.86247 21.6395 7.66807 21.6395 12.3455C21.6395 17.0228 17.8342 20.8286 13.1565 20.8286C8.4789 20.8286 4.6735 17.0231 4.6735 12.3455Z" fill="#3BB77E"/>
<path d="M39.8211 24.6883H60.6483C61.7145 24.6883 62.5788 23.8237 62.5788 22.7577V1.9305C62.5788 0.864478 61.7145 0 60.6483 0H39.8211C38.7549 0 37.8906 0.864478 37.8906 1.9305V22.7577C37.8906 23.8237 38.7549 24.6883 39.8211 24.6883ZM41.7516 3.86101H58.7178V20.8273H41.7516V3.86101Z" fill="#3BB77E"/>
<path d="M99.3964 21.0255L88.2571 1.7321C87.9124 1.1348 87.2751 0.766846 86.5854 0.766846C85.8956 0.766846 85.2583 1.1348 84.9136 1.7321L73.7743 21.0255C73.4294 21.6229 73.4294 22.3588 73.7743 22.956C74.1191 23.5533 74.7564 23.9213 75.4461 23.9213H97.7246C98.4143 23.9213 99.0515 23.5533 99.3964 22.956C99.7413 22.3588 99.7413 21.6229 99.3964 21.0255ZM78.7898 20.0603L86.5851 6.55835L94.3806 20.0603H78.7898Z" fill="#3BB77E"/>
<path d="M50.2316 43.6763C51.2979 43.6763 52.1622 42.8117 52.1622 41.7457V36.2374L52.2404 36.3466C52.6174 36.8733 53.2101 37.1539 53.8119 37.1539C54.2008 37.1539 54.5935 37.0367 54.9339 36.793C55.8009 36.1726 56.0008 34.9667 55.3804 34.0997L51.8018 29.0991C51.4392 28.5926 50.8546 28.292 50.2319 28.292C49.6091 28.292 49.0245 28.5926 48.6619 29.0991L45.0834 34.0997C44.4629 34.9667 44.6628 36.1726 45.5298 36.793C46.3968 37.4134 47.6025 37.2138 48.2232 36.3467L48.3012 36.2374V41.7457C48.3012 42.812 49.1655 43.6763 50.2316 43.6763Z" fill="#3BB77E"/>
<path d="M34.3404 59.3114C34.3404 58.2453 33.4761 57.3808 32.4099 57.3808H15.0996V36.2374L15.1779 36.3466C15.5549 36.8733 16.1475 37.1539 16.7495 37.1539C17.1382 37.1539 17.5309 37.0367 17.8715 36.793C18.7385 36.1726 18.9382 34.9667 18.3178 34.0997L14.7392 29.0991C14.3766 28.5926 13.7921 28.292 13.1694 28.292C12.5466 28.292 11.962 28.5926 11.5995 29.0991L8.02091 34.0997C7.40044 34.9667 7.60025 36.1726 8.46724 36.793C9.33404 37.4134 10.54 37.2138 11.1607 36.3467L11.2387 36.2374V59.3114C11.2387 60.3774 12.103 61.2419 13.1692 61.2419H32.4099C33.4759 61.2419 34.3404 60.3776 34.3404 59.3114Z" fill="#3BB77E"/>
<path d="M88.8701 29.0989C88.5075 28.5923 87.9229 28.2917 87.3002 28.2917C86.6775 28.2917 86.0929 28.5923 85.7303 29.0989L82.1518 34.0995C81.5313 34.9665 81.7311 36.1723 82.598 36.7927C83.465 37.4132 84.671 37.2136 85.2915 36.3465L85.3696 36.2373V57.3807H68.0595C66.9932 57.3807 66.1289 58.2453 66.1289 59.3113C66.1289 60.3773 66.9932 61.2417 68.0595 61.2417H87.3002C88.3663 61.2417 89.2306 60.3773 89.2306 59.3113V36.2373L89.3089 36.3465C89.6859 36.8732 90.2786 37.1537 90.8805 37.1537C91.2693 37.1537 91.6619 37.0366 92.0025 36.7929C92.8695 36.1725 93.0693 34.9667 92.4489 34.0997L88.8701 29.0989Z" fill="#3BB77E"/>
<path d="M73.3642 88.4174C74.4303 88.4174 75.2946 87.5531 75.2946 86.487C75.2946 85.4208 74.4303 84.5564 73.3642 84.5564C72.2979 84.5564 71.4336 85.4208 71.4336 86.487C71.4336 87.5531 72.2979 88.4174 73.3642 88.4174Z" fill="#3BB77E"/>
</g>
</g>
<defs>
<clipPath id="clip0_6511_2274">
<rect width="100" height="100" fill="white"/>
</clipPath>
</defs>
</svg>
