<svg width="100" height="100" viewBox="0 0 100 100" fill="none" xmlns="http://www.w3.org/2000/svg">
<g clip-path="url(#clip0_6511_2313)">
<mask id="mask0_6511_2313" style="mask-type:luminance" maskUnits="userSpaceOnUse" x="1" y="0" width="99" height="99">
<path d="M100.002 0H1.16016V98.8417H100.002V0Z" fill="white"/>
</mask>
<g mask="url(#mask0_6511_2313)">
<path d="M22.7315 69.1782C21.9141 68.4935 20.6965 68.6012 20.0119 69.4185L15.1848 75.1818L13.4401 73.7036C12.6266 73.0145 11.4087 73.1152 10.7193 73.9288C10.0301 74.7422 10.1309 75.9605 10.9444 76.6496L14.1703 79.3826C14.5202 79.6792 14.9629 79.8402 15.4182 79.8402C15.4729 79.8402 15.5278 79.8378 15.5828 79.833C16.0948 79.7892 16.5683 79.5432 16.8982 79.1492L22.9722 71.8976C23.6563 71.0803 23.5486 69.8629 22.7315 69.1782Z" fill="#3BB77E"/>
<path d="M62.8604 31.4285V37.1428C62.8604 37.857 60.0033 39.9999 59.289 39.9999H46.4319C45.2413 39.7618 42.8604 39.7142 42.8604 41.4285V46.4285L40.0033 47.1428C39.289 47.6189 37.8604 48.7142 37.8604 49.2856C37.8604 49.9999 37.1461 51.4285 37.8604 52.1428C38.5747 52.857 40.0031 53.5713 40.7174 54.2856C41.4317 54.9999 42.8604 54.2856 42.8604 54.9999V57.857C42.8604 58.4285 43.3366 59.9999 43.5746 60.7142C44.0507 61.1903 45.146 62.1427 45.7174 62.1427C46.2889 62.1427 47.3841 62.6189 47.8603 62.857V64.9999C47.8603 65.5713 48.8127 67.1427 49.2889 67.857C50.0031 68.3332 51.7174 69.2856 52.8603 69.2856C54.2889 69.2856 66.4317 70.7142 68.5746 70.7142C70.2889 70.7142 75.9556 69.7617 78.5746 69.2856L83.5746 65.7142L90.7174 64.2856H95.0031L97.8603 62.857V59.2856L98.5746 44.2856L97.146 41.4285H92.146C91.5746 41.4285 89.0507 39.5238 87.8603 38.5713C86.9079 37.857 85.0031 36.2856 85.0031 35.7142C85.0031 35.1428 80.7174 33.0952 78.5746 32.1428L75.7174 31.4285H68.5746H65.0031H62.8604Z" fill="#FDC040"/>
<path d="M37.1445 11.4285V28.5713L42.859 26.4285L45.0017 24.9999L52.1445 28.5713L54.2874 26.4285L53.5731 12.857L51.4302 11.4285H44.2874H37.1445Z" fill="#FDC040"/>
<path d="M62.859 31.4285C62.859 33.0952 62.859 36.5713 62.859 37.1428M62.859 31.4285V37.1428M62.859 31.4285H65.0017M62.859 37.1428C62.859 37.857 60.0018 39.9999 59.2875 39.9999M65.0017 31.4285H68.5731H75.716L78.5731 32.1428C80.716 33.0952 85.0017 35.1428 85.0017 35.7142C85.0017 36.2856 86.9064 37.857 87.8588 38.5713C89.0492 39.5238 91.5731 41.4285 92.1445 41.4285M65.0017 31.4285H62.1445M59.2875 39.9999C58.7161 39.9999 50.478 39.9999 46.4304 39.9999M59.2875 39.9999H46.4304M46.4304 39.9999C45.2398 39.7618 42.859 39.7142 42.859 41.4285M42.859 41.4285C42.859 43.1428 42.859 45.476 42.859 46.4285M42.859 41.4285V46.4285M42.859 46.4285L40.0018 47.1428C39.2875 47.6189 37.859 48.7142 37.859 49.2856C37.859 49.9999 37.1447 51.4285 37.859 52.1428C38.5732 52.857 40.0017 53.5713 40.716 54.2856C41.4302 54.9999 42.859 54.2856 42.859 54.9999M42.859 54.9999C42.859 55.7142 42.859 57.1427 42.859 57.857M42.859 54.9999V57.857M42.859 57.857C42.859 58.4285 43.3351 59.9999 43.5731 60.7142C44.0492 61.1903 45.1445 62.1427 45.716 62.1427C46.2874 62.1427 47.3827 62.6189 47.8588 62.857M47.8588 62.857C47.8588 63.3332 47.8588 64.4285 47.8588 64.9999M47.8588 62.857V64.9999M47.8588 64.9999C47.8588 65.5713 48.8112 67.1427 49.2874 67.857C50.0017 68.3332 51.716 69.2856 52.8588 69.2856C54.2874 69.2856 66.4302 70.7142 68.5731 70.7142C70.2874 70.7142 75.9541 69.7617 78.5731 69.2856L83.5731 65.7142L90.716 64.2856H95.0017L97.8588 62.857V59.2856L98.5731 44.2856L97.1445 41.4285M97.1445 41.4285C95.716 41.4285 92.716 41.4285 92.1445 41.4285M97.1445 41.4285H92.1445M37.1445 11.4285C37.1445 11.9999 37.1445 23.0952 37.1445 28.5713M37.1445 11.4285H44.2874H51.4302L53.5731 12.857L54.2874 26.4285L52.1445 28.5713L45.0017 24.9999L42.859 26.4285L37.1445 28.5713M37.1445 11.4285V28.5713" stroke="black" stroke-width="1.42857" stroke-linecap="round" stroke-linejoin="round"/>
<path d="M95.9135 39.4035H93.1389C90.815 39.296 88.946 37.3168 86.7837 35.0263C85.3387 33.496 83.7916 31.8575 81.9279 30.643V14.1403C81.9279 11.2335 79.563 8.86865 76.6564 8.86865H13.6885C10.7818 8.86865 8.41711 11.2335 8.41711 14.1403V27.5318C8.41711 28.598 9.2814 29.4623 10.3476 29.4623C11.4138 29.4623 12.2781 28.598 12.2781 27.5318V14.1403C12.2781 13.3758 12.9241 12.7297 13.6885 12.7297H35.0513V29.8102C35.0513 30.5119 35.4322 31.1585 36.0459 31.4988C36.3373 31.6603 36.6597 31.7406 36.9816 31.7406C37.3373 31.7406 37.6925 31.6425 38.0049 31.4472L45.1749 26.9659L52.3395 31.447C52.9347 31.819 53.6847 31.8392 54.2987 31.4989C54.9129 31.1588 55.2937 30.5123 55.2937 29.8103V12.7297H76.6567C77.4212 12.7297 78.0672 13.3756 78.0672 14.1403V29.0063C77.4392 28.8749 76.7799 28.7959 76.0827 28.7835C76.0713 28.7833 76.0602 28.7833 76.0487 28.7833H71.158H67.3595H65.1716C65.1615 28.7833 65.1517 28.7833 65.1416 28.7835C62.8145 28.8196 61.6186 29.8746 61.0252 30.7532C60.1042 32.1169 60.0189 33.9639 60.7842 35.9516C60.9623 36.4158 61.1795 36.8548 61.4297 37.2673H46.7909C43.6457 37.2673 41.0867 39.8262 41.0867 42.9713C41.0867 43.618 41.1949 44.24 41.3936 44.82H40.8812C37.736 44.82 35.1772 47.3789 35.1772 50.5243C35.1772 53.6696 37.736 56.2285 40.8812 56.2285H41.3922C41.1943 56.8069 41.0866 57.4269 41.0866 58.0718C41.0866 61.1186 43.4832 63.6156 46.4883 63.7735C46.2886 64.3542 46.18 64.9768 46.18 65.6246C46.18 68.77 48.7389 71.3289 51.8842 71.3289H75.8019C76.6256 71.3289 77.3755 71.2282 78.0666 71.0555V77.1046C78.0666 77.8722 77.4206 78.5205 76.6562 78.5205H31.9399C32.3186 77.1718 32.5256 75.7519 32.5256 74.2838C32.5256 65.6359 25.4903 58.6003 16.8426 58.6003C15.2552 58.6003 13.7227 58.8393 12.2775 59.28V44.8883C12.2775 43.8222 11.4132 42.9579 10.347 42.9579C9.28081 42.9579 8.41653 43.8222 8.41653 44.8883V61.0666C4.05804 63.8558 1.16016 68.7362 1.16016 74.2839C1.16016 82.9349 8.19548 89.9729 16.8432 89.9729C22.531 89.9729 27.5207 86.9276 30.2706 82.3816H76.6567C79.5633 82.3816 81.9282 80.0145 81.9282 77.1048V69.1563C82.3543 68.8516 82.7619 68.5392 83.157 68.2345C84.8619 66.9207 86.3342 65.7862 88.6785 65.7862H95.9136C98.1679 65.7862 100.002 63.9546 100.002 61.7032V43.492C100.002 41.2373 98.1679 39.4035 95.9135 39.4035ZM51.4327 26.3258L46.199 23.0522C45.5729 22.6609 44.7785 22.6608 44.152 23.052L38.9123 26.3269V12.7297H51.4327V26.3258ZM16.8432 86.1119C10.3244 86.1119 5.02115 80.8059 5.02115 74.2839C5.02115 67.765 10.3244 62.4615 16.8432 62.4615C23.3619 62.4615 28.6652 67.765 28.6652 74.2839C28.6652 80.8059 23.3619 86.1119 16.8432 86.1119ZM96.1409 61.7032C96.1409 61.8216 96.0347 61.9252 95.9135 61.9252H88.6783C85.0186 61.9252 82.7776 63.6523 80.8002 65.1762C79.1386 66.4568 77.8262 67.468 75.802 67.468H51.8844C50.8683 67.468 50.0415 66.6412 50.0415 65.6249C50.0415 64.6085 50.8683 63.7816 51.8844 63.7816H58.2926C59.3589 63.7816 60.2232 62.9173 60.2232 61.851C60.2232 60.7849 59.3589 59.9206 58.2926 59.9206H46.791C45.7746 59.9206 44.948 59.0915 44.948 58.0719C44.948 57.0555 45.7749 56.2288 46.791 56.2288H58.2926C59.3589 56.2288 60.2232 55.3645 60.2232 54.2982C60.2232 53.232 59.3589 52.3678 58.2926 52.3678H40.8815C39.8652 52.3678 39.0383 51.5409 39.0383 50.5245C39.0383 49.508 39.8652 48.6812 40.8815 48.6812H58.2926C59.3589 48.6812 60.2232 47.8169 60.2232 46.7508C60.2232 45.6845 59.3589 44.8202 58.2926 44.8202H46.791C45.7746 44.8202 44.948 43.9909 44.948 42.9716C44.948 41.9552 45.7749 41.1285 46.791 41.1285H68.3317H72.5216H75.3204C76.3866 41.1285 77.2509 40.2642 77.2509 39.198C77.2509 38.1318 76.3866 37.2675 75.3204 37.2675H72.5216H68.3317C66.566 37.2675 65.0183 36.2079 64.3882 34.5665C64.021 33.6125 64.121 33.0685 64.2252 32.914C64.3299 32.7592 64.7069 32.6536 65.188 32.6445H71.158H76.031C79.2865 32.7096 81.5647 35.1228 83.9767 37.6772C86.4999 40.3496 89.1089 43.1129 93.0246 43.263C93.0492 43.264 93.0739 43.2645 93.0986 43.2645H95.9139C96.037 43.2645 96.1413 43.3686 96.1413 43.4918L96.1409 61.7032Z" fill="#3BB77E"/>
<path d="M10.3485 38.1433C11.4147 38.1433 12.279 37.2736 12.279 36.2073C12.279 35.1411 11.4147 34.2769 10.3485 34.2769C9.28227 34.2769 8.41797 35.1411 8.41797 36.2073V36.2184C8.41797 37.2844 9.28227 38.1433 10.3485 38.1433Z" fill="#3BB77E"/>
</g>
</g>
<defs>
<clipPath id="clip0_6511_2313">
<rect width="100" height="100" fill="white"/>
</clipPath>
</defs>
</svg>
