<svg width="25" height="25" viewBox="0 0 25 25" fill="none" xmlns="http://www.w3.org/2000/svg">
<path d="M18.2743 1.28351C17.1483 1.30102 16.0468 1.61536 15.0811 2.19478C14.1154 2.7742 13.3197 3.59818 12.7743 4.58351C12.229 3.59818 11.4333 2.7742 10.4676 2.19478C9.50191 1.61536 8.40042 1.30102 7.27437 1.28351C5.47931 1.3615 3.78807 2.14676 2.57015 3.46774C1.35223 4.78872 0.706621 6.53803 0.774372 8.33351C0.774372 15.1085 11.7303 22.9335 12.1963 23.2655L12.7743 23.6745L13.3523 23.2655C13.8183 22.9355 24.7743 15.1085 24.7743 8.33351C24.8421 6.53803 24.1965 4.78872 22.9786 3.46774C21.7606 2.14676 20.0694 1.3615 18.2743 1.28351ZM12.7743 21.2125C9.52137 18.7825 2.77437 12.8125 2.77437 8.33351C2.70601 7.06822 3.14074 5.82724 3.98373 4.88121C4.82673 3.93518 6.0096 3.36086 7.27437 3.28351C8.53914 3.36086 9.72201 3.93518 10.565 4.88121C11.408 5.82724 11.8427 7.06822 11.7743 8.33351H13.7743C13.706 7.06822 14.1407 5.82724 14.9837 4.88121C15.8267 3.93518 17.0096 3.36086 18.2743 3.28351C19.5391 3.36086 20.722 3.93518 21.565 4.88121C22.408 5.82724 22.8427 7.06822 22.7743 8.33351C22.7743 12.8145 16.0273 18.7825 12.7743 21.2125Z" fill="#253D4E"/>
</svg>
