<svg width="26" height="26" viewBox="0 0 26 26" fill="none" xmlns="http://www.w3.org/2000/svg">
<path d="M20.2987 8.38683L21.7156 7.5603C18.65 2.29387 12.0422 0.281984 6.56181 2.94641V0.930115H4.92188V5.84991H9.84167V4.20998H7.74665C12.3855 2.24221 17.7638 4.03194 20.2987 8.38683Z" fill="#253D4E"/>
<path d="M5.33116 21.1635C1.52924 18.0758 0.528578 12.686 2.96884 8.43934L1.54702 7.61938C-1.2363 12.4662 -0.183151 18.6069 4.05611 22.2492H2.0513V23.8892H6.97109V18.9694H5.33116V21.1635Z" fill="#253D4E"/>
<path d="M22.5223 11.2355L19.044 14.7146L20.2034 15.874L21.5973 14.4801C21.0506 19.5603 16.7697 23.4158 11.6602 23.43V25.0699C17.7479 25.0539 22.7981 20.3557 23.2528 14.2849L24.8419 15.874L26.0014 14.7146L22.5223 11.2355Z" fill="#253D4E"/>
</svg>
