<svg width="45" height="35" viewBox="0 0 45 35" fill="none" xmlns="http://www.w3.org/2000/svg">
<g clip-path="url(#clip0_6649_11691)">
<path d="M30.6266 18.1184V16.0417C30.6266 12.5607 29.2438 9.22233 26.7824 6.76091C24.321 4.2995 20.9826 2.91669 17.5016 2.91669C14.0207 2.91669 10.6822 4.2995 8.22087 6.76091C5.75945 9.22233 4.37665 12.5607 4.37665 16.0417V18.1184C2.84709 18.7918 1.59532 19.9703 0.830887 21.4566C0.0664596 22.9428 -0.164222 24.6464 0.17746 26.2825C0.519143 27.9184 1.41245 29.3874 2.70783 30.4434C4.00322 31.4994 5.62205 32.0784 7.29332 32.0834H10.2099V17.5H7.29332V16.0417C7.29332 13.3342 8.36883 10.7377 10.2832 8.82331C12.1977 6.90887 14.7943 5.83335 17.5016 5.83335C20.209 5.83335 22.8056 6.90887 24.7201 8.82331C26.6345 10.7377 27.7099 13.3342 27.7099 16.0417V17.5H24.7933V29.1667H18.9599V32.0834H27.7099C29.3813 32.0784 31 31.4994 32.2954 30.4434C33.5908 29.3874 34.4842 27.9184 34.8258 26.2825C35.1676 24.6464 34.9368 22.9428 34.1724 21.4566C33.4079 19.9703 32.1562 18.7918 30.6266 18.1184ZM7.29332 29.1667C6.13299 29.1667 5.02019 28.7058 4.19972 27.8853C3.37925 27.0648 2.91832 25.952 2.91832 24.7917C2.91832 23.6313 3.37925 22.5185 4.19972 21.6981C5.02019 20.8776 6.13299 20.4167 7.29332 20.4167V29.1667ZM27.7099 29.1667V20.4167C28.8703 20.4167 29.9831 20.8776 30.8035 21.6981C31.624 22.5185 32.0849 23.6313 32.0849 24.7917C32.0849 25.952 31.624 27.0648 30.8035 27.8853C29.9831 28.7058 28.8703 29.1667 27.7099 29.1667Z" fill="#253D4E"/>
</g>
<defs>
<clipPath id="clip0_6649_11691">
<rect width="35" height="35" fill="white"/>
</clipPath>
</defs>
</svg>
